<svg
  baseProfile="basic"
  xmlns="http://www.w3.org/2000/svg"
  width="71.7"
  height="59.1"
  viewBox="0 0 71.7 59.1"
  class="svg icon"
  data-v-435d0d06=""
>
  <path
    fill="white"
    d="M29.5 59.1h-8.4V44.6c0-1.3 1.1-2.4 2.4-2.4H38v8.4h-6.1c-1.3 0-2.4 1.1-2.4 2.4v6.1zM29.5 38h-8.4V23.5c0-1.3 1.1-2.4 2.4-2.4H38v8.4h-6.1c-1.3 0-2.4 1.1-2.4 2.4V38zM50.6 38h-8.4V23.5c0-1.3 1.1-2.4 2.4-2.4h14.5v8.4H53c-1.3 0-2.4 1.1-2.4 2.4V38zM71.7 38h-8.4V21.1h6.1c1.3 0 2.4 1.1 2.4 2.4V38zM50.6 59.1h-8.4V44.6c0-1.3 1.1-2.4 2.4-2.4h14.5v8.4H53c-1.3 0-2.4 1.1-2.4 2.4v6.1zM8.4 59.1H0V44.6c0-1.3 1.1-2.4 2.4-2.4h14.5v8.4h-6.1c-1.3 0-2.4 1.1-2.4 2.4v6.1zM71.7 59.1h-8.4V42.2h6.1c1.3 0 2.4 1.1 2.4 2.4v14.5zM50.6 16.9h-8.4V2.4c0-1.3 1.1-2.4 2.4-2.4h14.5v8.4H53c-1.3 0-2.4 1.1-2.4 2.4v6.1zM71.7 16.9h-8.4V0h6.1c1.3 0 2.4 1.1 2.4 2.4v14.5z"
    data-v-435d0d06=""
  ></path>
</svg>
